<svg xmlns="http://www.w3.org/2000/svg" width="24" height="24" viewBox="0 0 24 24" fill="none">
  <circle cx="12" cy="12" r="12" fill="#1B1B1B"/>
  <path d="M18.8234 8.72537C18.6138 8.47498 18.2403 8.44206 17.9899 8.65086L16.349 10.0293L15.5943 8.15961C15.5675 8.08943 15.5267 8.03051 15.4799 7.97853C15.3257 7.63543 15.058 7.34085 14.6889 7.17017C14.5286 7.09739 14.3631 7.0584 14.1977 7.03934C14.1613 7.02028 14.1283 6.99515 14.0868 6.98216L11.199 6.17726C11.037 6.13307 10.8741 6.16167 10.7407 6.23964C10.5821 6.29336 10.4461 6.40859 10.3811 6.57581L9.29378 9.37172C9.17594 9.67583 9.3267 10.0189 9.63168 10.1385C9.93492 10.2563 10.2789 10.1047 10.3976 9.79972L11.316 7.43876L12.6312 7.80438C12.5991 7.85636 12.5645 7.90488 12.5385 7.96033L10.8524 11.6149C10.8282 11.6686 10.8152 11.7232 10.7979 11.7786L8.7488 15.2139L5.31955 16.361C4.9314 16.6513 4.84909 17.198 5.13587 17.5862C5.42439 17.9752 5.97282 18.0575 6.36011 17.7707L9.86907 16.5621C9.97651 16.4841 10.0545 16.3818 10.1134 16.2718C10.1576 16.225 10.2078 16.1878 10.2416 16.1297L11.4633 14.0815L13.6319 15.9296L11.3116 18.5444C10.9919 18.9048 11.024 19.4602 11.3862 19.779C11.7474 20.1005 12.3011 20.0667 12.6225 19.7045L15.5181 16.4425C15.6082 16.342 15.6619 16.2259 15.6983 16.1046C15.7199 16.0387 15.7199 15.9703 15.7251 15.9019C15.7251 15.8672 15.7381 15.836 15.7355 15.8039C15.7277 15.5648 15.6307 15.3326 15.4349 15.1671L13.4395 13.4655C13.5834 13.3286 13.7055 13.1657 13.7939 12.9743L15.0866 10.1749L15.5007 11.2778C15.5181 11.3757 15.551 11.4719 15.6203 11.5525C15.6827 11.627 15.7624 11.6764 15.8473 11.711C15.856 11.7154 15.8664 11.7162 15.8768 11.7188C15.9305 11.7379 15.9851 11.7561 16.0414 11.7587C16.1081 11.7647 16.1757 11.7561 16.2441 11.737C16.2459 11.7362 16.2467 11.7362 16.2467 11.7362C16.2649 11.7318 16.2831 11.7353 16.3013 11.7275C16.3975 11.6911 16.4711 11.6296 16.5344 11.5577L18.8893 9.55886C19.1397 9.34832 19.034 8.97577 18.8234 8.72537Z" fill="#F6F6F6"/>
  <path d="M15.8448 7.30102C16.7564 7.30102 17.4954 6.56206 17.4954 5.65051C17.4954 4.73896 16.7564 4 15.8448 4C14.9333 4 14.1943 4.73896 14.1943 5.65051C14.1943 6.56206 14.9333 7.30102 15.8448 7.30102Z" fill="#F6F6F6"/>
</svg>