<svg aria-hidden="true" style="position: absolute; width: 0; height: 0; overflow: hidden;" version="1.1" xmlns="http://www.w3.org/2000/svg" xmlns:xlink="http://www.w3.org/1999/xlink">
<defs>
    <symbol id="icon-align-justify" viewBox="0 0 64 32">
<path fill="none" stroke="#7e847f" style="stroke: var(--color1, #7e847f)" stroke-linejoin="round" stroke-linecap="round" stroke-miterlimit="4" stroke-width="4" d="M56 20.667h-48"></path>
<path fill="none" stroke="#7e847f" style="stroke: var(--color1, #7e847f)" stroke-linejoin="round" stroke-linecap="round" stroke-miterlimit="4" stroke-width="4" d="M56 10h-48"></path>
</symbol>
<symbol id="icon-heart" viewBox="0 0 32 32">
<path fill="none" stroke="#f6f6f6" style="stroke: var(--color1, #f6f6f6)" stroke-linejoin="round" stroke-linecap="round" stroke-miterlimit="4" stroke-width="2.4" d="M27.787 6.147c-0.681-0.681-1.49-1.222-2.38-1.591s-1.844-0.559-2.807-0.559c-0.963 0-1.917 0.19-2.807 0.559s-1.699 0.909-2.38 1.591l-1.413 1.413-1.413-1.413c-1.376-1.376-3.241-2.148-5.187-2.148s-3.811 0.773-5.187 2.148c-1.376 1.376-2.148 3.241-2.148 5.187s0.773 3.811 2.148 5.187l11.787 11.787 11.787-11.787c0.681-0.681 1.222-1.49 1.591-2.38s0.559-1.844 0.559-2.807c0-0.963-0.19-1.917-0.559-2.807s-0.909-1.699-1.591-2.38z"></path>
</symbol>
<symbol id="icon-x" viewBox="0 0 32 32">
<path stroke-linejoin="round" stroke-linecap="round" stroke-miterlimit="4" stroke-width="2.2857" d="M22.666 9.333l-13.333 13.333M9.333 9.333l13.333 13.333"></path>
</symbol>
<symbol id="icon-fluent_food-24-filled" viewBox="0 0 32 32">
<path fill="#f6f6f6" style="fill: var(--color1, #f6f6f6)" d="M7.36 9.143h-1.92c-0.532 0-0.96 0.459-0.96 1.029v4.457h-0.96c-0.176 0-0.32 0.154-0.32 0.343v2.057c0 0.188 0.144 0.343 0.32 0.343h0.96v4.457c0 0.57 0.428 1.028 0.96 1.028h1.92c0.532 0 0.96-0.459 0.96-1.028v-11.657c0-0.57-0.428-1.029-0.96-1.029zM28.48 14.629h-0.96v-4.457c0-0.57-0.428-1.029-0.96-1.029h-1.92c-0.532 0-0.96 0.459-0.96 1.029v11.657c0 0.57 0.428 1.028 0.96 1.028h1.92c0.532 0 0.96-0.459 0.96-1.028v-4.457h0.96c0.176 0 0.32-0.154 0.32-0.343v-2.057c0-0.189-0.144-0.343-0.32-0.343zM21.44 6.4h-1.92c-0.532 0-0.96 0.459-0.96 1.029v7.2h-5.12v-7.2c0-0.57-0.428-1.029-0.96-1.029h-1.92c-0.532 0-0.96 0.459-0.96 1.029v17.143c0 0.57 0.428 1.029 0.96 1.029h1.92c0.532 0 0.96-0.459 0.96-1.029v-7.2h5.12v7.2c0 0.57 0.428 1.029 0.96 1.029h1.92c0.532 0 0.96-0.459 0.96-1.029v-17.143c0-0.57-0.428-1.029-0.96-1.029z"></path>
</symbol>
<symbol id="icon-Star-1" viewBox="0 0 32 32">
<path fill="#eea10c" style="fill: var(--color2, #eea10c)" d="M13.826 3.262c0.684-2.106 3.663-2.106 4.348 0l1.932 5.945c0.306 0.942 1.184 1.579 2.174 1.579h6.251c2.214 0 3.135 2.833 1.344 4.135l-5.057 3.674c-0.801 0.582-1.136 1.614-0.83 2.556l1.931 5.945c0.684 2.106-1.726 3.857-3.517 2.555l-5.057-3.674c-0.801-0.582-1.886-0.582-2.687 0l-5.057 3.674c-1.791 1.302-4.202-0.45-3.517-2.555l1.932-5.945c0.306-0.942-0.029-1.973-0.83-2.556l-5.057-3.674c-1.791-1.302-0.871-4.135 1.344-4.135h6.251c0.99 0 1.868-0.638 2.174-1.579l1.932-5.945z"></path>
</symbol>
<symbol id="icon-arrow" viewBox="0 0 32 32">
<path fill="none" stroke-linejoin="round" stroke-linecap="round" stroke-miterlimit="4" stroke-width="2.6" stroke="#1B1B1B" d="M15 28l13-13M28 15l-13-13M28 15h-26"></path>
</symbol>
<symbol id="icon-inverted-commas" viewBox="0 0 32 32">
<path fill="#f6f6f6" style="fill: var(--color1, #f6f6f6)" d="M8.201 17.468c1.546-0.612 2.785-0.452 3.719 0.481s1.21 2.421 0.831 4.462c-0.292 1.517-0.933 2.683-1.925 3.5-0.962 0.788-2.085 1.181-3.369 1.181-1.75 0-2.96-0.671-3.631-2.013-0.671-1.371-0.802-3.208-0.394-5.512 0.233-1.254 0.613-2.523 1.137-3.806s1.225-2.596 2.1-3.937c0.875-1.342 2.013-2.508 3.413-3.5s2.946-1.633 4.638-1.925l-0.438 4.637c-1.429 0.292-2.698 1.035-3.806 2.231-1.108 1.167-1.867 2.567-2.275 4.2zM21.37 17.468c1.546-0.612 2.785-0.452 3.719 0.481s1.21 2.421 0.831 4.462c-0.292 1.517-0.933 2.683-1.925 3.5-0.963 0.788-2.085 1.181-3.369 1.181-1.75 0-2.96-0.671-3.631-2.013-0.671-1.371-0.802-3.208-0.394-5.512 0.233-1.254 0.613-2.523 1.138-3.806s1.225-2.596 2.1-3.937 2.012-2.508 3.412-3.5c1.4-0.992 2.946-1.633 4.638-1.925l-0.438 4.637c-1.429 0.292-2.698 1.035-3.806 2.231-1.108 1.167-1.867 2.567-2.275 4.2z"></path>
</symbol>
<symbol id="icon-youtube" viewBox="0 0 32 32">
<path fill="#7e847f" style="fill: var(--color3, #7e847f)" opacity="0.8" d="M24.24 6c-1.36-0.080-4.16-0.16-8.4-0.16h-0.56c-4.080 0-6.8 0.080-8.16 0.24-1.84 0.16-3.12 0.64-3.84 1.28-0.64 0.56-1.12 1.6-1.28 2.96-0.080 0.88-0.16 2.72-0.16 5.52v0.4c0 2.64 0.080 4.48 0.24 5.36 0.24 1.28 0.64 2.24 1.44 2.8 0.8 0.64 2.16 1.040 4.080 1.2 1.36 0.080 4.16 0.16 8.4 0.16h0.56c4.080 0 6.8-0.080 8.16-0.24 1.84-0.16 3.12-0.64 3.84-1.28 0.64-0.56 1.12-1.6 1.28-2.96 0.080-0.88 0.16-2.72 0.16-5.52v-0.4c0-2.64-0.080-4.48-0.24-5.36-0.24-1.28-0.64-2.24-1.44-2.8-0.8-0.64-2.16-1.040-4.080-1.2zM21.12 15.84l-8.8 5.28v-10.56l8.8 5.28z"></path>
</symbol>
<symbol id="icon-instagram" viewBox="0 0 32 32">
<path fill="#7e847f" style="fill: var(--color3, #7e847f)" opacity="0.8" d="M28.717 10.756c-0.016-1.074-0.215-2.14-0.596-3.145-0.667-1.716-2.024-3.073-3.743-3.737-0.994-0.373-2.044-0.573-3.108-0.596-1.368-0.061-1.801-0.078-5.273-0.078s-3.917 0-5.274 0.078c-1.062 0.023-2.112 0.223-3.106 0.596-1.719 0.664-3.078 2.021-3.743 3.737-0.374 0.992-0.576 2.041-0.596 3.101-0.061 1.367-0.080 1.8-0.080 5.265s0 3.909 0.080 5.265c0.021 1.062 0.222 2.109 0.596 3.104 0.667 1.714 2.024 3.071 3.744 3.735 0.989 0.386 2.040 0.605 3.106 0.639 1.369 0.061 1.803 0.080 5.274 0.080s3.916 0 5.274-0.080c1.062-0.021 2.113-0.221 3.108-0.595 1.719-0.666 3.076-2.022 3.743-3.737 0.374-0.994 0.574-2.041 0.596-3.104 0.061-1.365 0.080-1.798 0.080-5.265-0.003-3.466-0.003-3.906-0.082-5.264zM15.99 22.531c-3.631 0-6.572-2.936-6.572-6.561s2.941-6.561 6.572-6.561c3.628 0 6.572 2.936 6.572 6.561s-2.944 6.561-6.572 6.561zM22.823 10.696c-0.849 0-1.532-0.684-1.532-1.53s0.684-1.53 1.532-1.53c0.846 0 1.531 0.684 1.531 1.53s-0.685 1.53-1.531 1.53z"></path>
<path fill="#7e847f" style="fill: var(--color3, #7e847f)" opacity="0.8" d="M15.992 19.976c2.211 0 4.004-1.793 4.004-4.004s-1.793-4.004-4.004-4.004c-2.211 0-4.004 1.793-4.004 4.004s1.793 4.004 4.004 4.004z"></path>
</symbol>
<symbol id="icon-facebook" viewBox="0 0 32 32">
<path fill="#7e847f" style="fill: var(--color3, #7e847f)" opacity="0.8" d="M19.52 4.64c0.24 0 0.48 0 0.96 0v3.6c-0.24 0-0.72 0-1.2 0s-0.96 0-1.2 0.24c-0.24 0.24-0.24 0.48-0.24 1.040 0 0.48 0 0.8 0 1.28h2.64v3.040h-2.64v13.2h-4.080v-13.28h-2.16v-3.040h2.16v-1.040c0-1.76 0.24-3.040 0.72-3.6 0.72-1.040 2.16-1.52 4.32-1.52 0.24 0.080 0.48 0.080 0.72 0.080z"></path>
</symbol>
<symbol id="icon-darkicon" viewBox="0 0 34 32">
<path fill="#f6f6f6" style="fill: var(--color2, #f6f6f6)" opacity="0.1" d="M32 16c0 8.837-7.163 16-16 16s-16-7.163-16-16c0-8.837 7.163-16 16-16s16 7.163 16 16z"></path>
<path fill="#f6f6f6" style="fill: var(--color2, #f6f6f6)" d="M24.729 11.907c-0.268-0.313-0.746-0.354-1.066-0.093l-2.099 1.723-0.965-2.337c-0.034-0.088-0.086-0.161-0.146-0.226-0.197-0.429-0.54-0.797-1.012-1.011-0.205-0.091-0.417-0.14-0.628-0.164-0.047-0.024-0.089-0.055-0.142-0.071l-3.694-1.006c-0.207-0.055-0.416-0.020-0.586 0.078-0.203 0.067-0.377 0.211-0.46 0.42l-1.391 3.495c-0.151 0.38 0.042 0.809 0.432 0.959 0.388 0.147 0.828-0.042 0.98-0.423l1.175-2.951 1.683 0.457c-0.041 0.065-0.085 0.126-0.119 0.195l-2.157 4.568c-0.031 0.067-0.048 0.135-0.070 0.205l-2.621 4.294-4.387 1.434c-0.497 0.363-0.602 1.046-0.235 1.531 0.369 0.486 1.071 0.589 1.566 0.231l4.489-1.511c0.137-0.098 0.237-0.225 0.313-0.363 0.056-0.058 0.121-0.105 0.164-0.178l1.563-2.56 2.774 2.31-2.968 3.268c-0.409 0.451-0.368 1.145 0.095 1.543 0.462 0.402 1.17 0.36 1.582-0.093l3.704-4.078c0.115-0.126 0.184-0.271 0.23-0.422 0.028-0.082 0.028-0.168 0.034-0.253 0-0.043 0.017-0.082 0.013-0.122-0.010-0.299-0.134-0.589-0.385-0.796l-2.553-2.127c0.184-0.171 0.34-0.375 0.453-0.614l1.654-3.499 0.53 1.379c0.022 0.122 0.064 0.243 0.153 0.343 0.080 0.093 0.182 0.155 0.29 0.198 0.011 0.005 0.024 0.007 0.038 0.010 0.069 0.024 0.139 0.047 0.211 0.050 0.085 0.008 0.172-0.003 0.259-0.027 0.002-0.001 0.003-0.001 0.003-0.001 0.023-0.005 0.047-0.001 0.070-0.011 0.123-0.046 0.217-0.122 0.298-0.212l3.013-2.498c0.32-0.263 0.185-0.729-0.084-1.042z"></path>
<path fill="#f6f6f6" style="fill: var(--color2, #f6f6f6)" d="M20.919 10.126c1.166 0 2.111-0.924 2.111-2.063s-0.945-2.063-2.111-2.063c-1.166 0-2.111 0.924-2.111 2.063s0.945 2.063 2.111 2.063z"></path>
</symbol>
<symbol id="icon-lighticon" viewBox="0 0 32 32">
<path fill="#7e847f" style="fill: var(--color1, #7e847f)" d="M32 16c0 8.837-7.163 16-16 16s-16-7.163-16-16c0-8.837 7.163-16 16-16s16 7.163 16 16z"></path>
<path fill="#f6f6f6" style="fill: var(--color2, #f6f6f6)" d="M25.098 11.634c-0.279-0.334-0.777-0.378-1.111-0.099l-2.188 1.838-1.006-2.493c-0.036-0.094-0.090-0.172-0.153-0.241-0.206-0.457-0.563-0.85-1.055-1.078-0.214-0.097-0.434-0.149-0.655-0.174-0.049-0.025-0.093-0.059-0.148-0.076l-3.85-1.073c-0.216-0.059-0.433-0.021-0.611 0.083-0.211 0.072-0.393 0.225-0.479 0.448l-1.45 3.728c-0.157 0.405 0.044 0.863 0.451 1.022 0.404 0.157 0.863-0.045 1.021-0.452l1.225-3.148 1.754 0.488c-0.043 0.069-0.089 0.134-0.124 0.208l-2.248 4.873c-0.032 0.072-0.050 0.144-0.073 0.218l-2.732 4.58-4.572 1.53c-0.518 0.387-0.627 1.116-0.245 1.633 0.385 0.519 1.116 0.628 1.632 0.246l4.679-1.611c0.143-0.104 0.247-0.24 0.326-0.387 0.059-0.062 0.126-0.112 0.171-0.189l1.629-2.731 2.891 2.464-3.094 3.486c-0.426 0.481-0.383 1.221 0.099 1.646 0.482 0.429 1.22 0.383 1.648-0.099l3.861-4.349c0.12-0.134 0.192-0.289 0.24-0.451 0.029-0.088 0.029-0.179 0.036-0.27 0-0.046 0.017-0.088 0.014-0.131-0.010-0.319-0.14-0.629-0.401-0.849l-2.661-2.269c0.192-0.183 0.355-0.4 0.473-0.655l1.724-3.733 0.552 1.471c0.023 0.131 0.067 0.259 0.159 0.366 0.083 0.099 0.189 0.165 0.303 0.211 0.012 0.006 0.025 0.007 0.039 0.010 0.072 0.025 0.144 0.050 0.219 0.053 0.089 0.008 0.179-0.003 0.27-0.029 0.002-0.001 0.003-0.001 0.003-0.001 0.024-0.006 0.049-0.001 0.073-0.012 0.128-0.049 0.226-0.131 0.311-0.226l3.14-2.665c0.334-0.281 0.193-0.777-0.088-1.111z"></path>
<path fill="#f6f6f6" style="fill: var(--color2, #f6f6f6)" d="M21.126 9.735c1.215 0 2.201-0.985 2.201-2.201s-0.985-2.201-2.201-2.201c-1.215 0-2.201 0.985-2.201 2.201s0.985 2.201 2.201 2.201z"></path>
</symbol>
<symbol id="icon-trash" viewBox="0 0 32 32">
<path fill="none" stroke-linejoin="round" stroke-linecap="round" stroke-miterlimit="4" stroke-width="2.6" stroke="#1B1B1B" d="M21.333 8v-1.067c0-1.493 0-2.24-0.291-2.811-0.256-0.502-0.664-0.91-1.165-1.165-0.57-0.291-1.317-0.291-2.811-0.291h-2.133c-1.493 0-2.24 0-2.811 0.291-0.502 0.256-0.91 0.664-1.165 1.165-0.291 0.57-0.291 1.317-0.291 2.811v1.067M13.333 15.333v6.667M18.667 15.333v6.667M4 8h24M25.333 8v14.933c0 2.24 0 3.36-0.436 4.216-0.384 0.753-0.995 1.365-1.748 1.748-0.856 0.436-1.976 0.436-4.216 0.436h-5.867c-2.24 0-3.36 0-4.216-0.436-0.753-0.384-1.365-0.995-1.748-1.748-0.436-0.856-0.436-1.976-0.436-4.216v-14.933"></path>
</symbol>
<symbol id="icon-search" viewBox="0 0 32 32">
<path fill="none" stroke-linejoin="round" stroke-linecap="round" stroke-miterlimit="4" stroke-width="2.6667" stroke="#1B1B1B" d="M14.667 25.333c5.891 0 10.667-4.776 10.667-10.667s-4.776-10.667-10.667-10.667c-5.891 0-10.667 4.776-10.667 10.667s4.776 10.667 10.667 10.667z"></path>
<path fill="none" stroke-linejoin="round" stroke-linecap="round" stroke-miterlimit="4" stroke-width="2.6667" stroke="#1B1B1B" d="M28 28l-5.8-5.8"></path>
</symbol>

</defs>
</svg>